Coordinates
version=1
nRows=16
nColumns=32
inDegrees=yes

Units are S.I. units (second, meters, Newtons, ...)
If the header above contains a line with 'inDegrees', this indicates whether rotational values are in degrees (yes) or radians (no).

endheader
time	pelvis_tilt	pelvis_list	pelvis_rotation	pelvis_tx	pelvis_ty	pelvis_tz	hip_flexion_r	hip_adduction_r	hip_rotation_r	knee_angle_r	knee_adduction_r	med_cond_adduction_r	lat_cond_adduction_r	patella_r_constrained_knee_angle	ankle_angle_r	subtalar_angle_r	mtp_angle_r	hip_flexion_l	hip_adduction_l	hip_rotation_l	knee_angle_l	knee_adduction_l	med_cond_adduction_l	lat_cond_adduction_l	patella_l_constrained_knee_angle	ankle_angle_l	subtalar_angle_l	mtp_angle_l	lumbar_extension	lumbar_bending	lumbar_rotation
      2.65500000	      7.84197429	     -3.02971201	     -1.96012355	      0.15236386	      0.47880188	     -1.21344906	     79.81024653	    -45.89562130	      0.21030454	   -119.91255329	     -9.82334788	     -0.00000000	     -0.00000000	     -2.09286887	     29.53645648	     16.77327611	      0.00000000	     87.71755604	    -49.49219396	     10.01549579	   -119.93499559	     -9.75700809	      0.00000000	     -0.00000000	     -2.09326056	     29.28789250	     19.29384912	      0.00000000	    -51.09679770	      2.92662445	      0.17920445
      2.66000000	      7.30110926	     -3.06701263	     -2.02347010	      0.15236331	      0.47876335	     -1.21333364	     80.31123545	    -45.74028421	      0.11538374	   -119.90902928	     -9.82054111	      0.00000000	      0.00000000	     -2.09280736	     29.52398595	     16.72738745	      0.00000000	     88.37723266	    -49.47586741	     10.10023833	   -119.93280571	     -9.75210439	     -0.00000000	     -0.00000000	     -2.09322234	     29.25323015	     19.29346051	     -0.00000000	    -50.40119474	      2.92956850	      0.19320113
      2.66500000	      6.71716023	     -3.08851670	     -2.08141674	      0.15240085	      0.47866221	     -1.21320726	     80.89724391	    -45.60463593	      0.05198696	   -119.90448423	     -9.81662779	      0.00000000	      0.00000000	     -2.09272804	     29.51223701	     16.70855014	     -0.00000000	     89.07450626	    -49.45760249	     10.14619169	   -119.93025427	     -9.74945810	     -0.00000000	     -0.00000000	     -2.09317781	     29.21344193	     19.28928522	     -0.00000000	    -49.66215736	      2.94658040	      0.22047936
      2.67000000	      6.16564482	     -2.59086355	     -2.17471456	      0.15237738	      0.47871872	     -1.21271176	     82.12285087	    -45.52869415	      0.88456390	   -119.90168163	     -9.81000924	      0.00000000	      0.00000000	     -2.09267912	     29.48905542	     16.75103847	      0.00000000	     88.96773845	    -49.44639556	      9.20357363	   -119.92615276	     -9.74844301	      0.00000000	     -0.00000000	     -2.09310622	     29.18136222	     19.27020175	     -0.00000000	    -48.91990285	      2.46885765	      0.02188885
      2.67500000	      5.51856303	     -3.12466980	     -2.20581219	      0.15243528	      0.47851452	     -1.21295047	     82.08432445	    -45.30386909	     -0.06737318	   -119.89368286	     -9.80875505	     -0.00000000	     -0.00000000	     -2.09253952	     29.48130068	     16.64856130	     -0.00000000	     90.49653295	    -49.41522604	     10.25246494	   -119.92422511	     -9.74044153	      0.00000000	      0.00000000	     -2.09307258	     29.11469794	     19.28682093	     -0.00000000	    -48.10305299	      3.00429202	      0.33288461
      2.68000000	      4.90097973	     -3.13326975	     -2.27002957	      0.15246754	      0.47848223	     -1.21280303	     82.69972114	    -45.15709210	     -0.12729870	   -119.88697008	     -9.80415211	      0.00000000	      0.00000000	     -2.09242236	     29.46376162	     16.61188004	     -0.00000000	     91.20618705	    -49.39339900	     10.28553385	   -119.92053642	     -9.73552423	      0.00000000	      0.00000000	     -2.09300820	     29.05809859	     19.28691864	      0.00000000	    -47.28351863	      2.99212878	      0.32214092
      2.68500000	      4.22440204	     -2.71157386	     -2.32235405	      0.15248862	      0.47842653	     -1.21242028	     83.93293570	    -45.09446482	      0.55695604	   -119.88151940	     -9.79669151	     -0.00000000	     -0.00000000	     -2.09232723	     29.44156919	     16.68991719	      0.00000000	     91.34281450	    -49.33526795	      9.48475614	   -119.91503544	     -9.73563737	     -0.00000000	     -0.00000000	     -2.09291219	     29.01308781	     19.25781687	     -0.00000000	    -46.36476121	      2.63682186	      0.20234948
      2.69000000	      3.62793324	     -3.12783313	     -2.39762752	      0.15252427	      0.47846219	     -1.21249570	     83.97203036	    -44.86040398	     -0.21744616	   -119.86901846	     -9.79413373	      0.00000000	      0.00000000	     -2.09210904	     29.42490123	     16.55597530	      0.00000000	     92.62812874	    -49.34488719	     10.30425511	   -119.91076311	     -9.72601226	      0.00000000	     -0.00000000	     -2.09283762	     28.91650621	     19.27692300	     -0.00000000	    -45.55965150	      3.04138332	      0.44259621
      2.69500000	      2.98214600	     -3.14174899	     -2.45004974	      0.15258420	      0.47853425	     -1.21235583	     84.57613352	    -44.73010684	     -0.31568299	   -119.85709605	     -9.78871459	     -0.00000000	     -0.00000000	     -2.09190096	     29.40241311	     16.49811604	      0.00000000	     93.36764831	    -49.31700873	     10.33359085	   -119.90440765	     -9.72066590	      0.00000000	      0.00000000	     -2.09272670	     28.83293708	     19.27188641	      0.00000000	    -44.66368982	      3.08961404	      0.48647459
      2.70000000	      2.28660499	     -2.75891155	     -2.47009664	      0.15263016	      0.47853642	     -1.21206656	     85.76322564	    -44.70101797	      0.28027862	   -119.84607339	     -9.78081677	     -0.00000000	     -0.00000000	     -2.09170858	     29.36998054	     16.59478344	     -0.00000000	     93.57585835	    -49.24887227	      9.59999270	   -119.89632935	     -9.71683433	      0.00000000	      0.00000000	     -2.09258571	     28.75505101	     19.24648801	      0.00000000	    -43.67605682	      2.74906179	      0.27936408
      2.70500000	      1.64716485	     -3.10999478	     -2.56553947	      0.15267226	      0.47866371	     -1.21205558	     85.90747309	    -44.46384875	     -0.40117527	   -119.82254538	     -9.77685497	      0.00000000	      0.00000000	     -2.09129793	     29.35179645	     16.46868856	      0.00000000	     94.79822055	    -49.25497303	     10.28557138	   -119.88834545	     -9.70856850	     -0.00000000	      0.00000000	     -2.09244636	     28.63167971	     19.26390091	      0.00000000	    -42.78213561	      3.10343799	      0.52470307
      2.71000000	      0.96000100	     -3.12700362	     -2.60631632	      0.15272261	      0.47876162	     -1.21195176	     86.52853484	    -44.34638573	     -0.51879912	   -119.79691239	     -9.77030940	     -0.00000000	     -0.00000000	     -2.09085055	     29.32390761	     16.41438200	      0.00000000	     95.57961657	    -49.20073749	     10.31730003	   -119.87790125	     -9.70131853	      0.00000000	      0.00000000	     -2.09226408	     28.50625310	     19.25797067	      0.00000000	    -41.79601235	      3.11532964	      0.46773247
      2.71500000	      0.27869581	     -3.22680017	     -2.62846039	      0.15283092	      0.47893544	     -1.21195955	     87.03364048	    -44.26443645	     -0.78340981	   -119.76137539	     -9.76398141	     -0.00000000	      0.00000000	     -2.09023032	     29.29690341	     16.36607995	     -0.00000000	     96.45640774	    -49.13129487	     10.48619250	   -119.86490636	     -9.69193015	     -0.00000000	     -0.00000000	     -2.09203727	     28.36002820	     19.25507356	      0.00000000	    -40.79891707	      3.23721549	      0.42134038
      2.72000000	     -0.38122399	     -3.19588998	     -2.68841215	      0.15287912	      0.47923695	     -1.21178532	     87.65246058	    -44.13215187	     -0.83736595	   -119.71421088	     -9.75578597	      0.00000000	      0.00000000	     -2.08940714	     29.26111548	     16.34487915	      0.00000000	     97.10518377	    -49.10501663	     10.40272547	   -119.84635523	     -9.68757889	      0.00000000	      0.00000000	     -2.09171350	     28.22163472	     19.24293356	     -0.00000000	    -39.83447780	      3.29713374	      0.55394253
      2.72500000	     -1.00962049	     -3.16265489	     -2.74932733	      0.15295770	      0.47969779	     -1.21164035	     88.20985310	    -44.00582947	     -0.90247685	   -119.64208448	     -9.74814032	      0.00000000	      0.00000000	     -2.08814830	     29.22806901	     16.38473849	     -0.00000000	     97.69094966	    -49.10438398	     10.29667655	   -119.82129534	     -9.68024611	     -0.00000000	     -0.00000000	     -2.09127612	     28.07776198	     19.23791047	     -0.00000000	    -38.87649946	      3.31830796	      0.59335211
      2.73000000	     -1.65188847	     -3.12631412	     -2.76965360	      0.15303538	      0.48020873	     -1.21158550	     88.77830792	    -43.93914744	     -0.96436223	   -119.54430807	     -9.73789860	      0.00000000	      0.00000000	     -2.08644178	     29.18825895	     16.39925967	      0.00000000	     98.27042540	    -49.05640855	     10.15947814	   -119.78513431	     -9.67368920	     -0.00000000	     -0.00000000	     -2.09064499	     27.92427122	     19.22580202	      0.00000000	    -37.91057481	      3.39414618	      0.65739714
